<svg version="1.1" id="Layer_1" xmlns="http://www.w3.org/2000/svg" x="0" y="0" viewBox="0 0 500 500" xml:space="preserve"><style>.st0{fill:none;stroke:#000;stroke-width:5;stroke-miterlimit:10}.st1{fill:#000}.st2{fill:none;stroke:#000;stroke-width:2;stroke-miterlimit:10}</style><path class="st0" d="M403.2 319.8h-51.8l-97.5 73.8 38-73.8H126.6V43.1h276.6z"/><path class="st0" d="M155.7 130.3l38.9-63.9 39 63.9z"/><path class="st1" d="M191.9 90.3h5.5v20.6h-5.5zM191.9 114.9h5.5v5.5h-5.5z"/><path class="st2" d="M266.2 102.5h88.1M266.2 119h99.1M266.2 135.6H351M266.2 152.2h88.1M266.2 168.8h44"/><path fill="none" stroke="#fff" stroke-width="10" stroke-miterlimit="10" d="M264.9 76.9h114.8"/><path fill="none" stroke="#fff" stroke-width="2" stroke-miterlimit="10" stroke-dasharray="6 3" d="M149.4 197.1h231"/><path class="st2" d="M162.7 223.8h88.1M162.7 240.4h99.1M162.7 257h84.7M162.7 273.5h88.1M162.7 290.1h44"/><path class="st0" d="M301.1 223.8h66.3v66.3h-66.3z"/><path class="st2" d="M315.9 238.6l36.7 36.7M352.6 238.6l-36.7 36.7"/><path class="st1" d="M148.6 153c.4-.3.8-.5 1.2-.8.4-.2.8-.5 1.2-.7v4.2c-.4-.2-.8-.4-1.2-.7-.4-.3-.8-.5-1.2-.8V153zM154 150.4c.8-.3 1.6-.6 2.4-.8l2.4-.6v9.6l-2.4-.6c-.8-.2-1.6-.5-2.4-.8v-6.8zM161.6 148.4c1.6-.2 3.2-.4 4.8-.5v11.6c-1.6-.1-3.2-.2-4.8-.5v-10.6zM169.3 147.9c1.6.1 3.2.5 4.8 1v9.5c-1.6.5-3.2.9-4.8 1v-11.5zM176.9 150c.8.3 1.6.6 2.4.8l2.4.6v4.6l-2.4.6c-.8.2-1.6.5-2.4.8V150zM184.6 151.7c1.6.1 3.2 0 4.8-.3v4.5c-1.6-.2-3.2-.4-4.8-.3v-3.9zM192.3 150.8c.8-.2 1.6-.5 2.4-.7l2.4-.8v8.6l-2.4-.8c-.8-.2-1.6-.5-2.4-.7v-5.6zM199.9 148.6c.8-.2 1.6-.4 2.4-.5l2.4-.3v11.9l-2.4-.3c-.8-.1-1.6-.3-2.4-.5v-10.3zM207.6 147.4c1.6-.2 3.2-.4 4.8-.5v13.7c-1.6-.1-3.2-.3-4.8-.5v-12.7zM215.2 146.7c1.6 0 3.2.1 4.8.2v13.5c-1.6.2-3.2.2-4.8.2v-13.9zM222.9 147.3c.8.1 1.6.2 2.4.4.8.1 1.6.3 2.4.5v11c-.8.2-1.6.4-2.4.5-.8.2-1.6.3-2.4.4v-12.8zM230.6 148.9c.8.2 1.6.5 2.4.7.8.3 1.6.5 2.4.9v6.4l-2.4.9c-.8.3-1.6.5-2.4.7v-9.6zM238.2 151.7c.8.4 1.7.8 2.5 1.3v1.3c-.8.5-1.7.9-2.5 1.3v-3.9z"/><g><path class="st1" d="M202.5 442.3c0-3.9.8-7.6 2.2-10.9-17.2-2.4-34.7-3.6-52.2-3.5-20.2.2-40.5 2.2-60.4 6.5s-39.4 10.9-57.8 20a57.7 57.7 0 00-7.8 4.8c-2.2 1.8-4.1 3.5-5.6 5.3-2.8 3.5-3.9 6.7-2.6 8.6s4.6 2.4 8.8 1.6c2.1-.4 4.5-1 7-2 2.5-.9 5.1-2 7.8-3.5 16.9-8.8 35-15.4 53.7-19.8s37.9-6.8 57.2-7.4c16.6-.5 33.3.3 49.9 2.3-.2-.7-.2-1.3-.2-2zM490.7 374.9c-1.4-1.1-5 .8-8 4.3-26 29-59.7 51-96.9 61.9-18.5 5.5-37.8 8.5-57.2 9.1-19.4.6-38.8-1.2-57.8-4.9l-3.6-.7-3.5-.8-3.5-.8h-.1c-.1 4.1-1 8-2.7 11.5h.2l3.7.8 3.7.8 3.7.6c19.9 3.5 40.1 4.8 60.3 3.8 20.2-1 40.2-4.6 59.4-10.7 9.6-3.1 19-6.8 28.1-11.2a219.68 219.68 0 0050-33.6c7.5-6.7 14.5-13.9 21.1-21.5 3.1-3.6 4.5-7.5 3.1-8.6z"/></g><ellipse transform="scale(.99995) rotate(-88.09 78 445.36)" class="st1" cx="78" cy="445.3" rx="15.5" ry="15.6"/><circle class="st1" cx="389.4" cy="445.3" r="15.5"/><circle class="st1" cx="443.5" cy="267" r="15.5"/><path class="st1" d="M231.3 413.6a28.8 28.8 0 10.01 57.61 28.8 28.8 0 00-.01-57.61zm15.2 40.4l-3.5 3.5-11.7-11.7-11.7 11.7-3.6-3.5 11.7-11.7-11.7-11.6 3.5-3.5 11.7 11.7 11.7-11.7 3.5 3.5-11.7 11.7 11.8 11.6zM120.8 436.4c6.6-1 13.1-2.4 19.5-4.1l.6 2.7c-6.6 1.3-13.2 2.2-19.9 2.9l-.2-1.5zM149.8 429.5c6.3-2.1 12.4-4.6 18.2-7.5l1.9 4.1c-6.2 2.7-12.6 5-19.1 6.7l-1-3.3zM176.5 417.2c5.5-3.5 10.7-7.4 15.5-11.8l4.1 4.6c-5.3 4.4-11 8.2-17 11.5l-2.6-4.3zM198.8 398.5c4.3-4.8 8.1-10 11.6-15.5l6.4 4.3c-3.9 5.6-8.4 10.9-13.2 15.8l-4.8-4.6zM215.4 374.6c3.1-5.7 5.9-11.6 8.4-17.7l8.4 3.8c-2.9 6.1-6.1 12.1-9.6 18l-7.2-4.1zM227.5 347.7l7.2-18.6 9.7 4-8 18.4zM422.9 265.9c1.6.1 3.2.1 4.8.1 1.6 0 3.2-.1 4.8-.2 3.2-.2 6.5-.6 9.7-1.3l1 3.2a66.4 66.4 0 01-9.8 3.3c-3.4.9-6.8 1.5-10.3 1.9l-.2-7zM404 262.8c-.3-.1-.5-.1-.8-.2v10.2c3.1.3 6.2.6 9.4.6l.8-8.7c-3.1-.4-6.3-1.1-9.4-1.9zM238.6 319.8l9.8 4.3c.7-1.4 1.3-2.9 2-4.3h-11.8z"/></svg>