<svg version="1.1" id="Layer_1" xmlns="http://www.w3.org/2000/svg" x="0" y="0" viewBox="0 0 500 500" xml:space="preserve"><style>.st0,.st1{fill:none;stroke:#000;stroke-width:5;stroke-miterlimit:10}.st1{stroke-width:2}</style><path class="st0" d="M403.24 319.78h-51.81l-97.55 73.79 38-73.79H126.56V43.09h276.68z"/><path class="st0" d="M155.73 130.25l38.92-63.85 38.92 63.85z"/><path d="M191.91 90.31h5.48v20.57h-5.48zM191.91 114.87h5.48v5.48h-5.48z"/><path class="st1" d="M266.22 102.46h88.09M266.22 119.04h99.11M266.22 135.62H351M266.22 152.21h88.09M266.22 168.79h44.02"/><path fill="none" stroke="#000" stroke-width="10" stroke-miterlimit="10" d="M264.9 76.91h114.77"/><path fill="none" stroke="#000" stroke-width="2" stroke-miterlimit="10" stroke-dasharray="6 3" d="M149.36 197.14h231.08"/><path class="st1" d="M162.66 223.79h88.09M162.66 240.37h99.11M162.66 256.96h84.79M162.66 273.54h88.09M162.66 290.12h44.03"/><path class="st0" d="M301.09 223.79h66.32v66.32h-66.32z"/><path class="st1" d="M315.93 238.63l36.64 36.65M352.57 238.63l-36.64 36.65"/><path d="M148.59 153.04c.42-.3.83-.53 1.25-.78.42-.24.83-.46 1.25-.66v4.19c-.42-.21-.83-.43-1.25-.66-.42-.26-.83-.49-1.25-.78v-1.31zM153.96 150.35c.8-.31 1.6-.57 2.39-.81.8-.24 1.6-.45 2.39-.63v9.56c-.8-.19-1.6-.39-2.39-.63-.8-.24-1.6-.5-2.39-.81v-6.68zM161.62 148.35c1.6-.25 3.19-.41 4.79-.48v11.64a45.7 45.7 0 01-4.79-.48v-10.68zM169.28 147.9c1.6.13 3.19.52 4.79 1.04v9.51c-1.6.52-3.19.9-4.79 1.04V147.9zM176.94 149.95c.8.29 1.6.57 2.39.82.8.24 1.6.44 2.39.61v4.63c-.8.16-1.6.37-2.39.61-.8.25-1.6.53-2.39.82v-7.49zM184.6 151.72c1.6.06 3.19-.04 4.79-.29v4.51c-1.6-.25-3.19-.35-4.79-.29v-3.93zM192.26 150.82c.8-.21 1.6-.46 2.39-.69l2.39-.75V158l-2.39-.75c-.8-.23-1.6-.48-2.39-.69v-5.74zM199.91 148.58c.8-.19 1.6-.36 2.39-.5.8-.13 1.6-.24 2.39-.34v11.91c-.8-.1-1.6-.21-2.39-.34-.8-.14-1.6-.31-2.39-.5v-10.23zM207.57 147.37c1.6-.2 3.19-.4 4.79-.52v13.69c-1.6-.12-3.19-.32-4.79-.52v-12.65zM215.23 146.7c1.6-.02 3.19.06 4.79.22v13.54c-1.6.16-3.19.24-4.79.22V146.7zM222.89 147.29c.8.13 1.6.24 2.39.41.8.14 1.6.31 2.39.5v11c-.8.19-1.6.35-2.39.5-.8.16-1.6.28-2.39.41v-12.82zM230.55 148.91c.8.23 1.6.46 2.39.73.8.26 1.6.54 2.39.85v6.39c-.8.31-1.6.59-2.39.85-.8.27-1.6.5-2.39.73v-9.55zM238.21 151.72c.83.4 1.67.81 2.5 1.32v1.3c-.83.51-1.67.92-2.5 1.32v-3.94z"/><g><path d="M202.47 442.34c0-3.87.77-7.56 2.16-10.93-17.25-2.41-34.7-3.65-52.2-3.5-20.2.17-40.47 2.22-60.36 6.53-19.88 4.3-39.38 10.9-57.76 19.99-2.87 1.48-5.53 3.08-7.78 4.81-2.24 1.76-4.15 3.51-5.58 5.26-2.84 3.53-3.91 6.67-2.64 8.63 1.27 1.96 4.58 2.4 8.77 1.57 2.11-.4 4.49-1.03 6.96-1.99 2.49-.93 5.14-2.05 7.78-3.48 16.89-8.8 35-15.37 53.67-19.83 18.67-4.46 37.91-6.83 57.23-7.4 16.6-.49 33.28.33 49.85 2.27-.07-.64-.1-1.28-.1-1.93zM490.69 374.91c-1.39-1.13-4.96.78-8.05 4.31-26.02 29.03-59.73 51-96.93 61.87-18.55 5.52-37.83 8.51-57.18 9.09-19.35.58-38.76-1.16-57.76-4.88l-3.56-.7-3.54-.79-3.54-.79-.09-.02c-.09 4.11-1.05 8.01-2.69 11.53l.18.04 3.71.75 3.71.75 3.73.65c19.88 3.46 40.13 4.84 60.3 3.81 20.16-1.03 40.21-4.57 59.44-10.74a218.11 218.11 0 0028.1-11.2c9.09-4.36 17.83-9.45 26.18-15.06 8.35-5.63 16.32-11.79 23.82-18.48 7.47-6.72 14.49-13.91 21.08-21.45 3.11-3.71 4.48-7.56 3.09-8.69z"/></g><circle cx="77.99" cy="445.34" r="15.55"/><circle cx="389.44" cy="445.34" r="15.55"/><circle cx="443.5" cy="266.96" r="15.55"/><path d="M231.26 413.55c-15.9 0-28.79 12.89-28.79 28.79s12.89 28.79 28.79 28.79 28.79-12.89 28.79-28.79-12.89-28.79-28.79-28.79zm15.21 40.47l-3.54 3.54-11.68-11.68-11.68 11.68-3.54-3.54 11.68-11.68-11.68-11.68 3.54-3.54 11.68 11.68 11.68-11.68 3.54 3.54-11.68 11.68 11.68 11.68zM120.85 436.44c6.57-1.04 13.08-2.38 19.47-4.09l.63 2.71c-6.6 1.32-13.25 2.24-19.91 2.86l-.19-1.48zM149.81 429.51c6.26-2.07 12.36-4.56 18.2-7.53l1.93 4.07c-6.22 2.74-12.64 4.95-19.15 6.72l-.98-3.26zM176.54 417.17c5.53-3.45 10.72-7.4 15.47-11.79l4.05 4.63c-5.29 4.38-10.99 8.24-16.97 11.52l-2.55-4.36zM198.81 398.46c4.31-4.82 8.14-10.04 11.62-15.51l6.45 4.31c-3.93 5.62-8.35 10.93-13.2 15.8l-4.87-4.6zM215.35 374.55c3.1-5.71 5.86-11.64 8.43-17.68l8.36 3.8c-2.94 6.1-6.11 12.14-9.65 17.99l-7.14-4.11zM227.52 347.73l7.2-18.62 9.7 3.99-8.01 18.38zM422.9 265.92c1.59.08 3.19.15 4.79.14 1.6 0 3.21-.06 4.82-.17 3.21-.25 6.45-.62 9.67-1.26l.99 3.23c-3.16 1.32-6.42 2.49-9.79 3.33-3.36.86-6.8 1.5-10.29 1.88l-.19-7.15zM404.02 262.84l-.78-.21v10.23c3.1.34 6.23.59 9.38.65l.79-8.67c-3.14-.54-6.27-1.2-9.39-2zM238.61 319.78l9.84 4.28c.66-1.44 1.33-2.86 2-4.28h-11.84z"/></svg>