<svg>
  <defs>

    <g id="study-icon">
      <path class="st0" d="M403.24 319.78h-51.81l-97.55 73.79 38-73.79H126.56V43.09h276.68z"/><path class="st0" d="M155.73 130.25l38.92-63.85 38.92 63.85z"/><path d="M191.91 90.31h5.48v20.57h-5.48zM191.91 114.87h5.48v5.48h-5.48z"/><path class="st1" d="M266.22 102.46h88.09M266.22 119.04h99.11M266.22 135.62H351M266.22 152.21h88.09M266.22 168.79h44.02"/><path fill="none" stroke="#000" stroke-width="10" stroke-miterlimit="10" d="M264.9 76.91h114.77"/><path fill="none" stroke="#000" stroke-width="2" stroke-miterlimit="10" stroke-dasharray="6 3" d="M149.36 197.14h231.08"/><path class="st1" d="M162.66 223.79h88.09M162.66 240.37h99.11M162.66 256.96h84.79M162.66 273.54h88.09M162.66 290.12h44.03"/><path class="st0" d="M301.09 223.79h66.32v66.32h-66.32z"/><path class="st1" d="M315.93 238.63l36.64 36.65M352.57 238.63l-36.64 36.65"/><path d="M148.59 153.04c.42-.3.83-.53 1.25-.78.42-.24.83-.46 1.25-.66v4.19c-.42-.21-.83-.43-1.25-.66-.42-.26-.83-.49-1.25-.78v-1.31zM153.96 150.35c.8-.31 1.6-.57 2.39-.81.8-.24 1.6-.45 2.39-.63v9.56c-.8-.19-1.6-.39-2.39-.63-.8-.24-1.6-.5-2.39-.81v-6.68zM161.62 148.35c1.6-.25 3.19-.41 4.79-.48v11.64a45.7 45.7 0 01-4.79-.48v-10.68zM169.28 147.9c1.6.13 3.19.52 4.79 1.04v9.51c-1.6.52-3.19.9-4.79 1.04V147.9zM176.94 149.95c.8.29 1.6.57 2.39.82.8.24 1.6.44 2.39.61v4.63c-.8.16-1.6.37-2.39.61-.8.25-1.6.53-2.39.82v-7.49zM184.6 151.72c1.6.06 3.19-.04 4.79-.29v4.51c-1.6-.25-3.19-.35-4.79-.29v-3.93zM192.26 150.82c.8-.21 1.6-.46 2.39-.69l2.39-.75V158l-2.39-.75c-.8-.23-1.6-.48-2.39-.69v-5.74zM199.91 148.58c.8-.19 1.6-.36 2.39-.5.8-.13 1.6-.24 2.39-.34v11.91c-.8-.1-1.6-.21-2.39-.34-.8-.14-1.6-.31-2.39-.5v-10.23zM207.57 147.37c1.6-.2 3.19-.4 4.79-.52v13.69c-1.6-.12-3.19-.32-4.79-.52v-12.65zM215.23 146.7c1.6-.02 3.19.06 4.79.22v13.54c-1.6.16-3.19.24-4.79.22V146.7zM222.89 147.29c.8.13 1.6.24 2.39.41.8.14 1.6.31 2.39.5v11c-.8.19-1.6.35-2.39.5-.8.16-1.6.28-2.39.41v-12.82zM230.55 148.91c.8.23 1.6.46 2.39.73.8.26 1.6.54 2.39.85v6.39c-.8.31-1.6.59-2.39.85-.8.27-1.6.5-2.39.73v-9.55zM238.21 151.72c.83.4 1.67.81 2.5 1.32v1.3c-.83.51-1.67.92-2.5 1.32v-3.94z"/><g><path d="M202.47 442.34c0-3.87.77-7.56 2.16-10.93-17.25-2.41-34.7-3.65-52.2-3.5-20.2.17-40.47 2.22-60.36 6.53-19.88 4.3-39.38 10.9-57.76 19.99-2.87 1.48-5.53 3.08-7.78 4.81-2.24 1.76-4.15 3.51-5.58 5.26-2.84 3.53-3.91 6.67-2.64 8.63 1.27 1.96 4.58 2.4 8.77 1.57 2.11-.4 4.49-1.03 6.96-1.99 2.49-.93 5.14-2.05 7.78-3.48 16.89-8.8 35-15.37 53.67-19.83 18.67-4.46 37.91-6.83 57.23-7.4 16.6-.49 33.28.33 49.85 2.27-.07-.64-.1-1.28-.1-1.93zM490.69 374.91c-1.39-1.13-4.96.78-8.05 4.31-26.02 29.03-59.73 51-96.93 61.87-18.55 5.52-37.83 8.51-57.18 9.09-19.35.58-38.76-1.16-57.76-4.88l-3.56-.7-3.54-.79-3.54-.79-.09-.02c-.09 4.11-1.05 8.01-2.69 11.53l.18.04 3.71.75 3.71.75 3.73.65c19.88 3.46 40.13 4.84 60.3 3.81 20.16-1.03 40.21-4.57 59.44-10.74a218.11 218.11 0 0028.1-11.2c9.09-4.36 17.83-9.45 26.18-15.06 8.35-5.63 16.32-11.79 23.82-18.48 7.47-6.72 14.49-13.91 21.08-21.45 3.11-3.71 4.48-7.56 3.09-8.69z"/></g><circle cx="77.99" cy="445.34" r="15.55"/><circle cx="389.44" cy="445.34" r="15.55"/><circle cx="443.5" cy="266.96" r="15.55"/><path d="M231.26 413.55c-15.9 0-28.79 12.89-28.79 28.79s12.89 28.79 28.79 28.79 28.79-12.89 28.79-28.79-12.89-28.79-28.79-28.79zm15.21 40.47l-3.54 3.54-11.68-11.68-11.68 11.68-3.54-3.54 11.68-11.68-11.68-11.68 3.54-3.54 11.68 11.68 11.68-11.68 3.54 3.54-11.68 11.68 11.68 11.68zM120.85 436.44c6.57-1.04 13.08-2.38 19.47-4.09l.63 2.71c-6.6 1.32-13.25 2.24-19.91 2.86l-.19-1.48zM149.81 429.51c6.26-2.07 12.36-4.56 18.2-7.53l1.93 4.07c-6.22 2.74-12.64 4.95-19.15 6.72l-.98-3.26zM176.54 417.17c5.53-3.45 10.72-7.4 15.47-11.79l4.05 4.63c-5.29 4.38-10.99 8.24-16.97 11.52l-2.55-4.36zM198.81 398.46c4.31-4.82 8.14-10.04 11.62-15.51l6.45 4.31c-3.93 5.62-8.35 10.93-13.2 15.8l-4.87-4.6zM215.35 374.55c3.1-5.71 5.86-11.64 8.43-17.68l8.36 3.8c-2.94 6.1-6.11 12.14-9.65 17.99l-7.14-4.11zM227.52 347.73l7.2-18.62 9.7 3.99-8.01 18.38zM422.9 265.92c1.59.08 3.19.15 4.79.14 1.6 0 3.21-.06 4.82-.17 3.21-.25 6.45-.62 9.67-1.26l.99 3.23c-3.16 1.32-6.42 2.49-9.79 3.33-3.36.86-6.8 1.5-10.29 1.88l-.19-7.15zM404.02 262.84l-.78-.21v10.23c3.1.34 6.23.59 9.38.65l.79-8.67c-3.14-.54-6.27-1.2-9.39-2zM238.61 319.78l9.84 4.28c.66-1.44 1.33-2.86 2-4.28h-11.84z"/>
    <g>

    <g id="draw-icon">
      <path class="st0" d="M350.13 134.84l-45.82-27.69-175.96 291.19-1.65 46.86 9.85 2.32 37.63-21.49z"/><path class="st1" d="M165.79 405.39l169.07-279.78"/><path class="st0" d="M174.18 426.03l-8.39-20.64M350.13 134.84L174.18 426.03"/><path class="st1" d="M150.52 396.16l169.06-279.78"/><path class="st0" d="M128.35 398.34l22.17-2.18M304.31 107.15L128.35 398.34M150.52 396.16l15.27 9.23"/><path d="M127.28 428.63l20.58 12.43-11.31 6.46-9.85-2.32z"/><path class="st0" d="M385.73 78.17l-31.87-19.26-15.94-9.63-34.6 57.27 47.8 28.88z"/><path class="st1" d="M325.89 88.68l6.71-11.11M333.53 93.3l6.71-11.11M341.16 97.91l6.72-11.11M348.8 102.53l6.72-11.11M356.44 107.15l6.72-11.12M313.37 92.15l45.82 27.7M309.19 99.06l45.83 27.69M329.85 64.87l45.83 27.69M334.02 57.96l45.83 27.7"/><path class="st0" d="M367.03 37.85l-15.27-9.23-12.85 21.26 45.83 27.69 5.46-9.04z"/><path fill="#fff" stroke="#000" stroke-width="2" stroke-miterlimit="10" d="M224.24 140.09l-70.29-68.92 96.82-17.74z"/><g><path d="M141.99 375.77c-10.38-.16-20.75-.33-31.11-.53-11.77-.24-23.53-.52-35.25-.96-11.71-.46-23.43-1.01-34.9-2.16l-4.12-.45-2.07-.26c-1.01-.14-2.03-.31-3.04-.56-.51-.13-1.01-.28-1.5-.49-.47-.21-1-.46-1.24-.94-.24-.51.13-1.02.48-1.36.37-.36.8-.64 1.24-.91.89-.53 1.84-.97 2.81-1.39.91-.39 1.9-.79 5.11-1.95 5.42-1.93 10.95-3.7 16.53-5.4 11.18-3.37 22.47-6.47 33.89-9.38l34.2-8.82 34.31-8.38c4.35-1.06 8.71-2.08 13.07-3.09l7.65-12.66c-7.74 1.7-15.48 3.39-23.19 5.19l-34.51 8.06-34.41 8.5c-11.47 2.8-22.96 5.83-34.4 9.15-5.72 1.67-11.44 3.44-17.16 5.41l-2.14.76-.54.19-.72.27-1.48.56-1.48.56-1.66.68c-1.11.46-2.23.9-3.28 1.4-4.32 1.92-8.16 4.2-10.61 6.66-1.2 1.24-2.18 2.48-2.87 3.86-.36.69-.63 1.43-.8 2.27-.17.84-.16 1.84.08 2.74.22.9.61 1.65 1.06 2.3.43.67.93 1.23 1.49 1.78 1.11 1.09 2.46 2.04 4.05 2.93 3.31 1.73 7.84 2.94 12.58 3.78 1.18.23 2.39.39 3.59.59l1.59.23 1.47.2 2.41.31 2.25.26c11.99 1.32 23.84 1.99 35.69 2.58 11.84.57 23.66.97 35.47 1.33 7.77.23 15.53.44 23.3.64l8.16-13.5zM430.87 410.91c-.18-.46-.35-.92-.55-1.36-.84-1.74-2.02-3.34-3.72-4.82-.37-.38-.85-.73-1.32-1.09-.48-.35-.91-.72-1.44-1.04l-1.62-.96-.82-.48-.89-.43c-1.18-.58-2.35-1.17-3.63-1.66l-1.88-.77c-.62-.25-1.17-.43-1.76-.64l-1.74-.62-.41-.14-.28-.09-.56-.18c-.75-.24-1.5-.49-2.25-.71-1.49-.46-2.98-.88-4.46-1.29-2.97-.81-5.91-1.56-8.88-2.25-11.87-2.76-23.73-4.7-35.59-6.31-11.86-1.59-23.71-2.81-35.56-3.82-23.69-2.01-47.36-3.2-71.01-4.07-16.2-.59-32.4-1.01-48.59-1.35l-8.5 14.07c18.84.56 37.67 1.2 56.47 2.09 23.48 1.11 46.93 2.53 70.23 4.74 11.65 1.11 23.25 2.43 34.76 4.09 11.5 1.67 22.92 3.67 34 6.37 2.77.67 5.53 1.41 8.25 2.18 1.35.39 2.7.79 4.02 1.21.67.2 1.31.43 1.97.64l.84.28.34.13.31.12.14.06.28.12c.18.08.36.18.53.28.3.2.72.46.62.88-.17.37-.6.53-.94.68-.18.07-.36.13-.54.18l-1.16.32-.9.25-1 .26-2.02.51c-1.35.33-2.72.65-4.11.94-2.76.6-5.56 1.15-8.39 1.67-11.31 2.05-22.88 3.58-34.47 4.94-11.61 1.35-23.27 2.49-34.96 3.52-46.77 4.04-93.81 6.51-140.84 8.47-9.23.38-17.95 1.14-25.58 2.17l-16.73 9.55-9.84-2.32.01-.2c-1.13.82-1.72 1.67-1.69 2.52.16 5.4 24.94 8.92 54.72 7.39 47.21-2.45 94.4-5.41 141.59-9.97 11.8-1.16 23.6-2.43 35.41-3.93 11.81-1.51 23.63-3.19 35.51-5.46 2.97-.57 5.95-1.19 8.94-1.87 1.5-.34 3-.7 4.5-1.09l2.26-.59 1.14-.31 1.22-.35.61-.18.75-.23 1.97-.63c1.33-.39 2.57-.92 3.86-1.38 2.46-1.02 4.92-2.11 6.85-3.46 1.98-1.32 3.59-2.78 4.73-4.39 1.15-1.6 1.94-3.34 2.25-5.48.13-1.06.11-2.2-.1-3.21-.06-.55-.22-1.01-.35-1.5zM468.52 264.36c-46.85 6.2-93.51 13.55-140.02 21.79a3689.35 3689.35 0 00-78.77 14.84l-6.98 11.56a3707.39 3707.39 0 0187.37-17.49c46.31-8.69 92.8-16.5 139.42-23.15 11.25-1.59 20-4.37 19.76-6.41-.23-2.06-9.47-2.62-20.78-1.14z"/></g><g><path d="M129.44 445.84c.24.31.58.55.98.68.2.06.39.09.59.09.29 0 .56-.08.82-.2l-2.39-.57zM166.7 334.88l85.99-280.86c.32-1.06-.27-2.17-1.33-2.5a2 2 0 00-2.5 1.33l-90.64 296.07 8.48-14.04z"/></g>
    <g>

  </defs>
</svg>