<svg version="1.1" id="Layer_1" xmlns="http://www.w3.org/2000/svg" x="0" y="0" viewBox="0 0 500 500" xml:space="preserve"><style>.st0,.st1{fill:none;stroke:#000;stroke-width:4;stroke-miterlimit:10}.st1{stroke-width:2}</style><path class="st0" d="M350.13 134.84l-45.82-27.69-175.96 291.19-1.65 46.86 9.85 2.32 37.63-21.49z"/><path class="st1" d="M165.79 405.39l169.07-279.78"/><path class="st0" d="M174.18 426.03l-8.39-20.64M350.13 134.84L174.18 426.03"/><path class="st1" d="M150.52 396.16l169.06-279.78"/><path class="st0" d="M128.35 398.34l22.17-2.18M304.31 107.15L128.35 398.34M150.52 396.16l15.27 9.23"/><path d="M127.28 428.63l20.58 12.43-11.31 6.46-9.85-2.32z"/><path class="st0" d="M385.73 78.17l-31.87-19.26-15.94-9.63-34.6 57.27 47.8 28.88z"/><path class="st1" d="M325.89 88.68l6.71-11.11M333.53 93.3l6.71-11.11M341.16 97.91l6.72-11.11M348.8 102.53l6.72-11.11M356.44 107.15l6.72-11.12M313.37 92.15l45.82 27.7M309.19 99.06l45.83 27.69M329.85 64.87l45.83 27.69M334.02 57.96l45.83 27.7"/><path class="st0" d="M367.03 37.85l-15.27-9.23-12.85 21.26 45.83 27.69 5.46-9.04z"/><path fill="#fff" stroke="#000" stroke-width="2" stroke-miterlimit="10" d="M224.24 140.09l-70.29-68.92 96.82-17.74z"/><g><path d="M141.99 375.77c-10.38-.16-20.75-.33-31.11-.53-11.77-.24-23.53-.52-35.25-.96-11.71-.46-23.43-1.01-34.9-2.16l-4.12-.45-2.07-.26c-1.01-.14-2.03-.31-3.04-.56-.51-.13-1.01-.28-1.5-.49-.47-.21-1-.46-1.24-.94-.24-.51.13-1.02.48-1.36.37-.36.8-.64 1.24-.91.89-.53 1.84-.97 2.81-1.39.91-.39 1.9-.79 5.11-1.95 5.42-1.93 10.95-3.7 16.53-5.4 11.18-3.37 22.47-6.47 33.89-9.38l34.2-8.82 34.31-8.38c4.35-1.06 8.71-2.08 13.07-3.09l7.65-12.66c-7.74 1.7-15.48 3.39-23.19 5.19l-34.51 8.06-34.41 8.5c-11.47 2.8-22.96 5.83-34.4 9.15-5.72 1.67-11.44 3.44-17.16 5.41l-2.14.76-.54.19-.72.27-1.48.56-1.48.56-1.66.68c-1.11.46-2.23.9-3.28 1.4-4.32 1.92-8.16 4.2-10.61 6.66-1.2 1.24-2.18 2.48-2.87 3.86-.36.69-.63 1.43-.8 2.27-.17.84-.16 1.84.08 2.74.22.9.61 1.65 1.06 2.3.43.67.93 1.23 1.49 1.78 1.11 1.09 2.46 2.04 4.05 2.93 3.31 1.73 7.84 2.94 12.58 3.78 1.18.23 2.39.39 3.59.59l1.59.23 1.47.2 2.41.31 2.25.26c11.99 1.32 23.84 1.99 35.69 2.58 11.84.57 23.66.97 35.47 1.33 7.77.23 15.53.44 23.3.64l8.16-13.5zM430.87 410.91c-.18-.46-.35-.92-.55-1.36-.84-1.74-2.02-3.34-3.72-4.82-.37-.38-.85-.73-1.32-1.09-.48-.35-.91-.72-1.44-1.04l-1.62-.96-.82-.48-.89-.43c-1.18-.58-2.35-1.17-3.63-1.66l-1.88-.77c-.62-.25-1.17-.43-1.76-.64l-1.74-.62-.41-.14-.28-.09-.56-.18c-.75-.24-1.5-.49-2.25-.71-1.49-.46-2.98-.88-4.46-1.29-2.97-.81-5.91-1.56-8.88-2.25-11.87-2.76-23.73-4.7-35.59-6.31-11.86-1.59-23.71-2.81-35.56-3.82-23.69-2.01-47.36-3.2-71.01-4.07-16.2-.59-32.4-1.01-48.59-1.35l-8.5 14.07c18.84.56 37.67 1.2 56.47 2.09 23.48 1.11 46.93 2.53 70.23 4.74 11.65 1.11 23.25 2.43 34.76 4.09 11.5 1.67 22.92 3.67 34 6.37 2.77.67 5.53 1.41 8.25 2.18 1.35.39 2.7.79 4.02 1.21.67.2 1.31.43 1.97.64l.84.28.34.13.31.12.14.06.28.12c.18.08.36.18.53.28.3.2.72.46.62.88-.17.37-.6.53-.94.68-.18.07-.36.13-.54.18l-1.16.32-.9.25-1 .26-2.02.51c-1.35.33-2.72.65-4.11.94-2.76.6-5.56 1.15-8.39 1.67-11.31 2.05-22.88 3.58-34.47 4.94-11.61 1.35-23.27 2.49-34.96 3.52-46.77 4.04-93.81 6.51-140.84 8.47-9.23.38-17.95 1.14-25.58 2.17l-16.73 9.55-9.84-2.32.01-.2c-1.13.82-1.72 1.67-1.69 2.52.16 5.4 24.94 8.92 54.72 7.39 47.21-2.45 94.4-5.41 141.59-9.97 11.8-1.16 23.6-2.43 35.41-3.93 11.81-1.51 23.63-3.19 35.51-5.46 2.97-.57 5.95-1.19 8.94-1.87 1.5-.34 3-.7 4.5-1.09l2.26-.59 1.14-.31 1.22-.35.61-.18.75-.23 1.97-.63c1.33-.39 2.57-.92 3.86-1.38 2.46-1.02 4.92-2.11 6.85-3.46 1.98-1.32 3.59-2.78 4.73-4.39 1.15-1.6 1.94-3.34 2.25-5.48.13-1.06.11-2.2-.1-3.21-.06-.55-.22-1.01-.35-1.5zM468.52 264.36c-46.85 6.2-93.51 13.55-140.02 21.79a3689.35 3689.35 0 00-78.77 14.84l-6.98 11.56a3707.39 3707.39 0 0187.37-17.49c46.31-8.69 92.8-16.5 139.42-23.15 11.25-1.59 20-4.37 19.76-6.41-.23-2.06-9.47-2.62-20.78-1.14z"/></g><g><path d="M129.44 445.84c.24.31.58.55.98.68.2.06.39.09.59.09.29 0 .56-.08.82-.2l-2.39-.57zM166.7 334.88l85.99-280.86c.32-1.06-.27-2.17-1.33-2.5a2 2 0 00-2.5 1.33l-90.64 296.07 8.48-14.04z"/></g></svg>