<?xml version="1.0" encoding="utf-8"?>
<!-- Generator: Adobe Illustrator 24.1.0, SVG Export Plug-In . SVG Version: 6.00 Build 0)  -->
<svg version="1.1" id="Layer_1" xmlns="http://www.w3.org/2000/svg" xmlns:xlink="http://www.w3.org/1999/xlink" x="0px" y="0px"
	 viewBox="0 0 500 500" style="enable-background:new 0 0 500 500;" xml:space="preserve">
<style type="text/css">
	.st0{fill:none;stroke:#FFFFFF;stroke-width:4;stroke-miterlimit:10;}
	.st1{fill:none;stroke:#FFFFFF;stroke-width:2;stroke-miterlimit:10;}
	.st2{fill:#FFFFFF;}
	.st3{fill:none;stroke:#FFFFFF;stroke-width:6;stroke-linecap:square;stroke-miterlimit:10;}
</style>
<g>
	<polygon class="st0" points="350.13,134.84 304.31,107.15 128.35,398.34 126.7,445.2 136.55,447.52 174.18,426.03 	"/>
	<line class="st1" x1="165.79" y1="405.39" x2="334.86" y2="125.61"/>
	<line class="st0" x1="174.18" y1="426.03" x2="165.79" y2="405.39"/>
	<line class="st1" x1="150.52" y1="396.16" x2="319.58" y2="116.38"/>
	<line class="st0" x1="128.35" y1="398.34" x2="150.52" y2="396.16"/>
	<line class="st0" x1="150.52" y1="396.16" x2="165.79" y2="405.39"/>
	<polygon class="st2" points="127.28,428.63 147.86,441.06 136.55,447.52 126.7,445.2 	"/>
	<polygon class="st0" points="385.73,78.17 353.86,58.91 337.92,49.28 303.32,106.55 351.12,135.43 	"/>
	<line class="st1" x1="325.89" y1="88.68" x2="332.6" y2="77.57"/>
	<line class="st1" x1="333.53" y1="93.3" x2="340.24" y2="82.19"/>
	<line class="st1" x1="341.16" y1="97.91" x2="347.88" y2="86.8"/>
	<line class="st1" x1="348.8" y1="102.53" x2="355.52" y2="91.42"/>
	<line class="st1" x1="356.44" y1="107.15" x2="363.16" y2="96.03"/>
	<line class="st1" x1="313.37" y1="92.15" x2="359.19" y2="119.85"/>
	<line class="st1" x1="309.19" y1="99.06" x2="355.02" y2="126.75"/>
	<line class="st1" x1="329.85" y1="64.87" x2="375.68" y2="92.56"/>
	<line class="st1" x1="334.02" y1="57.96" x2="379.85" y2="85.66"/>
	<polygon class="st0" points="367.03,37.85 351.76,28.62 338.91,49.88 384.74,77.57 390.2,68.53 	"/>
</g>
<polygon class="st1" points="224.24,140.09 153.95,71.17 250.77,53.43 "/>
<g>
	<path class="st2" d="M141.99,375.77c-10.38-0.16-20.75-0.33-31.11-0.53c-11.77-0.24-23.53-0.52-35.25-0.96
		c-11.71-0.46-23.43-1.01-34.9-2.16l-4.12-0.45l-2.07-0.26c-1.01-0.14-2.03-0.31-3.04-0.56c-0.51-0.13-1.01-0.28-1.5-0.49
		c-0.47-0.21-1-0.46-1.24-0.94c-0.24-0.51,0.13-1.02,0.48-1.36c0.37-0.36,0.8-0.64,1.24-0.91c0.89-0.53,1.84-0.97,2.81-1.39
		c0.91-0.39,1.9-0.79,5.11-1.95c5.42-1.93,10.95-3.7,16.53-5.4c11.18-3.37,22.47-6.47,33.89-9.38l34.2-8.82l34.31-8.38
		c4.35-1.06,8.71-2.08,13.07-3.09l7.65-12.66c-7.74,1.7-15.48,3.39-23.19,5.19l-34.51,8.06l-34.41,8.5
		c-11.47,2.8-22.96,5.83-34.4,9.15c-5.72,1.67-11.44,3.44-17.16,5.41l-2.14,0.76l-0.54,0.19l-0.72,0.27l-1.48,0.56l-1.48,0.56
		l-1.66,0.68c-1.11,0.46-2.23,0.9-3.28,1.4c-4.32,1.92-8.16,4.2-10.61,6.66c-1.2,1.24-2.18,2.48-2.87,3.86
		c-0.36,0.69-0.63,1.43-0.8,2.27c-0.17,0.84-0.16,1.84,0.08,2.74c0.22,0.9,0.61,1.65,1.06,2.3c0.43,0.67,0.93,1.23,1.49,1.78
		c1.11,1.09,2.46,2.04,4.05,2.93c3.31,1.73,7.84,2.94,12.58,3.78c1.18,0.23,2.39,0.39,3.59,0.59l1.59,0.23l1.47,0.2l2.41,0.31
		l2.25,0.26c11.99,1.32,23.84,1.99,35.69,2.58c11.84,0.57,23.66,0.97,35.47,1.33c7.77,0.23,15.53,0.44,23.3,0.64L141.99,375.77z"/>
	<path class="st2" d="M430.87,410.91c-0.18-0.46-0.35-0.92-0.55-1.36c-0.84-1.74-2.02-3.34-3.72-4.82
		c-0.37-0.38-0.85-0.73-1.32-1.09c-0.48-0.35-0.91-0.72-1.44-1.04l-1.62-0.96l-0.82-0.48l-0.89-0.43c-1.18-0.58-2.35-1.17-3.63-1.66
		L415,398.3c-0.62-0.25-1.17-0.43-1.76-0.64l-1.74-0.62l-0.41-0.14l-0.28-0.09l-0.56-0.18c-0.75-0.24-1.5-0.49-2.25-0.71
		c-1.49-0.46-2.98-0.88-4.46-1.29c-2.97-0.81-5.91-1.56-8.88-2.25c-11.87-2.76-23.73-4.7-35.59-6.31
		c-11.86-1.59-23.71-2.81-35.56-3.82c-23.69-2.01-47.36-3.2-71.01-4.07c-16.2-0.59-32.4-1.01-48.59-1.35l-8.5,14.07
		c18.84,0.56,37.67,1.2,56.47,2.09c23.48,1.11,46.93,2.53,70.23,4.74c11.65,1.11,23.25,2.43,34.76,4.09
		c11.5,1.67,22.92,3.67,34,6.37c2.77,0.67,5.53,1.41,8.25,2.18c1.35,0.39,2.7,0.79,4.02,1.21c0.67,0.2,1.31,0.43,1.97,0.64
		l0.84,0.28l0.34,0.13l0.31,0.12l0.14,0.06l0.28,0.12c0.18,0.08,0.36,0.18,0.53,0.28c0.3,0.2,0.72,0.46,0.62,0.88
		c-0.17,0.37-0.6,0.53-0.94,0.68c-0.18,0.07-0.36,0.13-0.54,0.18l-1.16,0.32l-0.9,0.25l-1,0.26l-2.02,0.51
		c-1.35,0.33-2.72,0.65-4.11,0.94c-2.76,0.6-5.56,1.15-8.39,1.67c-11.31,2.05-22.88,3.58-34.47,4.94
		c-11.61,1.35-23.27,2.49-34.96,3.52c-46.77,4.04-93.81,6.51-140.84,8.47c-9.23,0.38-17.95,1.14-25.58,2.17l-16.73,9.55l-9.84-2.32
		l0.01-0.2c-1.13,0.82-1.72,1.67-1.69,2.52v0c0.16,5.4,24.94,8.92,54.72,7.39c47.21-2.45,94.4-5.41,141.59-9.97
		c11.8-1.16,23.6-2.43,35.41-3.93c11.81-1.51,23.63-3.19,35.51-5.46c2.97-0.57,5.95-1.19,8.94-1.87c1.5-0.34,3-0.7,4.5-1.09
		l2.26-0.59l1.14-0.31l1.22-0.35l0.61-0.18l0.75-0.23l1.97-0.63c1.33-0.39,2.57-0.92,3.86-1.38c2.46-1.02,4.92-2.11,6.85-3.46
		c1.98-1.32,3.59-2.78,4.73-4.39c1.15-1.6,1.94-3.34,2.25-5.48c0.13-1.06,0.11-2.2-0.1-3.21C431.16,411.86,431,411.4,430.87,410.91z
		"/>
	<path class="st2" d="M468.52,264.36c-46.85,6.2-93.51,13.55-140.02,21.79c-26.31,4.66-52.57,9.61-78.77,14.84l-6.98,11.56
		c29.05-6.18,58.18-12.01,87.37-17.49c46.31-8.69,92.8-16.5,139.42-23.15c11.25-1.59,20-4.37,19.76-6.41v0
		C489.07,263.44,479.83,262.88,468.52,264.36z"/>
</g>
<line class="st3" x1="250.77" y1="53.43" x2="166.82" y2="327.63"/>
</svg>
